<?xml version="1.0" standalone="no"?>
<!DOCTYPE svg PUBLIC "-//W3C//DTD SVG 20010904//EN"
 "http://www.w3.org/TR/2001/REC-SVG-20010904/DTD/svg10.dtd">
<svg version="1.0" xmlns="http://www.w3.org/2000/svg"
 width="354.000000pt" height="351.000000pt" viewBox="0 0 354.000000 351.000000"
 preserveAspectRatio="xMidYMid meet">

<g transform="translate(0.000000,351.000000) scale(0.100000,-0.100000)"
fill="#000000" stroke="none">
<path d="M815 3221 c-94 -24 -136 -43 -210 -96 -116 -83 -204 -204 -251 -345
-17 -51 -19 -115 -22 -965 -2 -805 -1 -919 13 -990 46 -225 219 -417 439 -484
67 -21 82 -21 995 -21 1019 0 986 -2 1118 62 94 45 225 176 276 274 74 144 71
92 75 1041 3 887 -1 1015 -37 1117 -70 199 -255 364 -458 410 -63 14 -179 16
-970 15 -823 0 -904 -2 -968 -18z m1862 -142 c161 -22 298 -124 371 -276 l37
-78 3 -915 c2 -602 -1 -932 -8 -963 -28 -131 -131 -262 -254 -322 -39 -19 -95
-40 -125 -45 -33 -6 -385 -10 -920 -10 -951 0 -941 0 -1047 61 -80 45 -159
131 -199 213 -55 114 -57 157 -53 1101 3 826 4 841 25 902 59 173 213 307 383
331 95 14 1690 15 1787 1z"/>
<path d="M1535 2776 c-376 -59 -685 -328 -789 -689 -117 -402 31 -831 367
-1071 348 -248 816 -243 1157 13 l54 40 17 -39 c25 -55 92 -125 146 -150 168
-79 359 -10 435 155 18 39 23 68 23 130 0 97 -22 151 -89 223 l-46 49 0 577 0
576 -190 0 -190 0 0 -77 0 -76 -77 75 c-160 155 -344 243 -563 268 -106 12
-153 11 -255 -4z m315 -57 c64 -12 137 -34 197 -61 42 -18 43 -19 27 -43 -20
-31 -83 -55 -147 -55 -109 -1 -187 -36 -187 -85 0 -12 12 -37 26 -56 20 -27
25 -42 20 -73 -8 -66 12 -90 118 -141 52 -25 97 -45 101 -45 16 0 115 -71 125
-90 9 -17 6 -28 -19 -63 -16 -23 -41 -72 -56 -107 -36 -87 -48 -99 -79 -80
-13 8 -60 60 -103 115 -107 135 -196 230 -267 282 -64 47 -97 53 -145 26 -29
-17 -32 -17 -66 2 -20 10 -43 32 -51 48 -27 51 -16 68 71 115 117 62 134 88
94 144 -19 26 -20 34 -11 67 20 65 57 105 105 112 50 7 171 1 247 -12z m-370
-13 c0 -2 -9 -23 -20 -47 -25 -56 -25 -75 0 -121 l20 -38 -71 -37 c-106 -56
-133 -82 -131 -127 2 -51 35 -101 86 -131 49 -29 92 -32 124 -9 14 10 32 14
48 10 35 -9 182 -159 298 -304 101 -126 136 -155 177 -145 39 10 56 31 90 112
17 42 43 92 57 111 37 49 36 99 -3 140 -34 35 -123 88 -205 121 -97 40 -111
53 -109 109 2 39 -3 56 -25 85 -15 19 -25 39 -22 44 9 13 89 31 143 31 76 0
124 18 166 62 l38 40 47 -28 c26 -15 91 -71 145 -125 l97 -97 0 -282 0 -282
-24 6 c-27 7 -40 -6 -75 -74 -13 -25 -33 -56 -45 -69 -20 -22 -26 -23 -98 -17
-63 5 -86 3 -131 -14 -144 -54 -221 -167 -159 -233 41 -44 111 -60 222 -53
l98 7 46 -71 c74 -114 64 -152 -64 -237 -85 -57 -110 -66 -128 -50 -40 35 -70
41 -222 48 -85 3 -163 10 -172 14 -23 9 -22 35 2 113 11 35 20 82 20 103 0 36
-4 41 -32 53 -18 8 -69 17 -113 21 -100 9 -139 25 -160 65 -24 47 -66 60 -185
57 l-102 -2 -29 32 c-49 55 -51 98 -6 128 23 15 31 13 145 -25 186 -62 253
-54 322 41 58 80 59 141 3 221 -50 73 -101 95 -169 72 -43 -14 -44 -14 -114
21 -74 37 -119 85 -140 151 -10 29 -9 39 9 68 41 65 -9 113 -143 138 -44 8
-66 17 -66 26 0 8 48 62 108 121 76 75 130 119 186 150 103 59 266 118 266 97z
m1280 -226 l0 -60 -42 0 c-51 0 -73 -12 -65 -34 5 -12 20 -16 57 -16 l50 0 0
-35 c0 -31 -3 -35 -26 -35 -21 0 -25 -4 -22 -22 2 -15 11 -24 26 -26 16 -3 22
-10 22 -28 0 -21 -4 -24 -39 -24 -49 0 -71 -8 -71 -26 0 -19 33 -34 74 -34 32
0 36 -3 36 -25 0 -20 -5 -25 -25 -25 -20 0 -25 -5 -25 -25 0 -20 5 -25 25 -25
21 0 25 -5 25 -29 0 -29 -2 -30 -52 -33 -45 -3 -53 -6 -53 -23 0 -17 8 -20 53
-23 47 -3 52 -5 52 -27 0 -17 -6 -25 -22 -27 -15 -2 -24 -11 -26 -25 -3 -19 1
-23 22 -23 22 0 26 -4 26 -29 0 -29 -2 -30 -52 -33 -45 -3 -53 -6 -53 -23 0
-17 8 -20 53 -23 50 -3 52 -4 52 -33 0 -24 -4 -29 -24 -29 -27 0 -40 -22 -23
-39 6 -6 19 -11 29 -11 16 0 18 -10 18 -103 l0 -103 43 -35 c114 -96 127 -269
27 -382 -102 -115 -275 -124 -380 -18 -59 60 -81 107 -82 179 -1 90 17 138 74
198 l50 53 -4 571 -3 570 137 0 138 0 0 -60z m-1797 -216 c63 -14 127 -38 127
-48 0 -1 -7 -17 -16 -35 -17 -34 -13 -74 14 -126 33 -66 74 -104 160 -150 85
-46 88 -47 115 -31 47 26 80 20 121 -21 20 -21 41 -52 47 -71 23 -69 -61 -172
-141 -172 -20 0 -89 18 -153 40 -128 44 -145 47 -187 25 -65 -34 -77 -123 -25
-191 47 -61 68 -69 175 -67 124 4 136 0 159 -46 24 -46 68 -67 162 -76 121
-11 129 -14 129 -39 0 -13 -9 -49 -20 -81 -52 -152 -19 -180 230 -191 141 -7
189 -18 156 -36 -10 -5 -46 -18 -81 -28 -214 -61 -447 -41 -650 55 -109 51
-168 94 -258 182 -285 281 -352 719 -168 1081 12 23 24 42 27 42 3 0 37 -7 77
-16z m1467 -682 c0 -168 0 -169 -26 -193 -14 -13 -37 -43 -51 -66 -14 -24 -26
-43 -28 -43 -2 0 -18 25 -35 56 -39 67 -60 77 -137 63 -66 -13 -134 -7 -187
15 -53 22 -49 53 13 108 64 58 139 83 203 69 85 -19 139 9 187 98 53 101 61
87 61 -107z"/>
<path d="M2576 1325 c-150 -53 -165 -254 -25 -325 100 -51 217 1 251 111 23
79 -25 174 -108 214 -39 18 -67 18 -118 0z m114 -55 c58 -30 85 -112 56 -169
-52 -100 -198 -90 -235 15 -17 48 -10 82 25 123 38 45 101 58 154 31z"/>
</g>
</svg>
